# xmcd
#
# Track frame offsets:
#	150
#	16651
#	34309
#	46297
#	61795
#	99185
#	117790
#	132757
#	158736
#	180687
#	203490
#	219243
#	235877
#	245413
#	265527
#	293309
#
# Disc length: 4306 seconds
#
# Revision: 0
# Processed by: cddbd v1.5.2PL0 Copyright (c) Steve Scherf et al.
# Submitted via: dBpowerAMP V4.0
#
DISCID=c110d010
DTITLE=Nobby Reed Project - Hold the Truth
DYEAR=2006
DGENRE=Blues
TTITLE0=Hold the Truth
TTITLE1=It's Myself
TTITLE2=Sliding
TTITLE3=I'm In Love
TTITLE4=Mr Sun
TTITLE5=Let Go
TTITLE6=Martin Luther
TTITLE7=Winterwind
TTITLE8=Black Raven
TTITLE9=Joy and Pain
TTITLE10=Blues is Raining
TTITLE11=Open Wide
TTITLE12=Save My Soul
TTITLE13=Million Dollars
TTITLE14=My Blues
TTITLE15=Last Winter
EXTD=Nobby Reed: guitars, vocals - Ray Bushey: Bass, vocal harmony - Eric Belrose: Drums
EXTT0=
EXTT1=
EXTT2=
EXTT3=
EXTT4=
EXTT5=
EXTT6=
EXTT7=
EXTT8=
EXTT9=
EXTT10=
EXTT11=
EXTT12=
EXTT13=
EXTT14=
EXTT15=
PLAYORDER=
